PathFileType	4	(X/Y/Z)	C:\Users\°ÂÌØÂü\Desktop\20201223\Trimmed_bx_n_5_901.trc
DataRate	CameraRate	NumFrames	NumMarkers	Units	OrigDataRate	OrigDataStartFrame	OrigNumFrames
50.00	50.00	       7	43	mm	50.00	352	       402
Frame#	Time	Top.Head			R.Acromium			L.Acromium			Sternum			R.ASIS			L.ASIS			V.Sacral			R.Thigh.Upper			R.Thigh.Front			R.Thigh.Rear			R.Knee.Lat			R.Knee.Med			R.Shank.Upper			R.Shank.Front			R.Shank.Rear			R.Ankle.Lat			R.Midfoot.Lat			R.Toe.Lat			R.Toe.Tip			R.Toe.Med			R.Ankle.Med			R.Midfoot.Sup			R.Heel			L.Thigh.Upper			L.Thigh.Front			L.Thigh.Rear			L.Knee.Lat			L.Knee.Med			L.Shank.Upper			L.Shank.Front			L.Shank.Rear			L.Ankle.Lat			L.Midfoot.Lat			L.Toe.Lat			L.Toe.Tip			L.Toe.Med			L.Ankle.Med			L.Midfoot.Sup			L.Heel			origin1 front left			origin2 front right			origin 3 back right			origin 4 back leftt			
		X1	Y1	Z1	X2	Y2	Z2	X3	Y3	Z3	X4	Y4	Z4	X5	Y5	Z5	X6	Y6	Z6	X7	Y7	Z7	X8	Y8	Z8	X9	Y9	Z9	X10	Y10	Z10	X11	Y11	Z11	X12	Y12	Z12	X13	Y13	Z13	X14	Y14	Z14	X15	Y15	Z15	X16	Y16	Z16	X17	Y17	Z17	X18	Y18	Z18	X19	Y19	Z19	X20	Y20	Z20	X21	Y21	Z21	X22	Y22	Z22	X23	Y23	Z23	X24	Y24	Z24	X25	Y25	Z25	X26	Y26	Z26	X27	Y27	Z27	X28	Y28	Z28	X29	Y29	Z29	X30	Y30	Z30	X31	Y31	Z31	X32	Y32	Z32	X33	Y33	Z33	X34	Y34	Z34	X35	Y35	Z35	X36	Y36	Z36	X37	Y37	Z37	X38	Y38	Z38	X39	Y39	Z39	X40	Y40	Z40	X41	Y41	Z41	X42	Y42	Z42	X43	Y43	Z43	

352	7.020	-62.40060	253.85393	1187.44116	-276.16519	93.03314	1047.85205	-287.26163	396.02216	1033.68604	-475.65598	234.74284	1060.05310	-720.64325	121.34033	971.45044	-693.18097	343.88187	965.71814	-870.84283	247.47954	1091.34131	-796.59686	73.15971	818.96564	-700.44800	138.42119	807.98535	-767.85034	82.27985	709.58215	-767.81348	111.21050	591.46472	-746.67224	220.78162	552.66382	-779.32703	108.69475	523.63812	-704.89355	166.43002	528.20435	-772.99188	99.72015	472.21631	-694.40027	134.37172	210.81126	-606.25922	85.89484	163.07117	-558.23352	68.06824	160.12358	-484.92068	121.37510	157.57942	-534.39111	167.79347	163.83153	-657.99023	216.15372	225.71317	-603.36066	197.26013	174.96925	-730.98291	197.46085	170.12361	-781.16998	437.06058	844.76538	-694.06018	376.60992	808.06055	-775.44611	432.06384	726.00958	-760.49744	406.95239	592.74103	-761.44788	297.64993	555.74774	-764.97223	411.35156	546.86938	-706.37048	350.88519	533.29980	-801.21576	417.59317	472.16446	-684.82965	409.48587	213.23085	-580.52222	450.89014	162.61406	-543.54468	462.14545	156.88913	-482.55124	406.27075	165.20592	-526.67535	369.23026	176.11046	-654.59088	316.87952	211.81415	-597.86932	332.22617	173.35869	-734.50995	338.50186	161.98856	-443.93799	448.32043	146.25208	-450.65479	74.87253	143.22108	-806.22656	82.15891	140.96645	-799.78064	456.48013	144.74205	
353	7.040	-63.41193	254.18559	1192.62000	-275.86191	93.10329	1051.90662	-288.16522	396.89038	1036.76428	-475.20392	234.90643	1062.43079	-720.52850	121.41138	971.62677	-693.12415	343.92068	965.97015	-871.08368	247.51778	1091.17065	-796.51196	73.34806	818.94965	-700.47662	138.59494	807.92950	-767.88641	82.45776	709.58246	-767.88989	111.30083	591.36743	-746.72314	220.76743	552.60291	-779.46368	108.72881	523.55933	-704.98419	166.45515	528.17157	-773.07434	99.74677	472.13101	-694.44653	134.39482	210.75266	-606.27264	85.87173	163.07404	-558.25232	68.09561	160.14540	-484.94501	121.37598	157.57544	-534.41339	167.77264	163.84132	-658.03674	216.22708	225.58580	-603.38092	197.30794	174.92355	-731.00769	197.48424	170.07237	-781.16895	437.10114	844.75751	-694.07349	376.69870	808.04645	-775.51373	432.09042	725.99493	-760.60052	407.11969	592.78809	-760.70721	297.26181	556.15466	-765.11591	411.28723	546.78943	-706.49390	350.98492	533.27252	-801.36554	417.60059	472.12048	-684.92419	409.52881	213.19682	-580.56036	450.92422	162.57291	-543.55133	462.16672	156.87032	-482.55646	406.26666	165.20160	-526.67590	369.24066	176.10574	-654.69226	316.95880	211.82777	-597.91443	332.21957	173.40565	-734.52246	338.52744	161.97795	-443.93066	448.34085	146.26715	-450.64169	74.84116	143.25218	-806.22852	82.15450	140.95657	-799.73486	456.45621	144.75995	
354	7.060	-64.57578	254.49600	1198.28369	-275.61319	93.10722	1056.37622	-289.12073	397.73969	1040.23560	-474.76620	235.07332	1064.93799	-720.38062	121.47922	971.87640	-693.07465	343.94315	966.28949	-871.39856	247.52660	1090.96082	-796.40710	73.52092	818.94073	-700.49670	138.74336	807.87323	-767.88837	82.58493	709.57013	-767.97803	111.33868	591.27319	-746.79785	220.71512	552.53180	-779.61389	108.72477	523.48547	-705.09106	166.46114	528.12976	-773.16998	99.76217	472.02774	-694.50262	134.41164	210.68184	-606.28595	85.83865	163.07068	-558.27191	68.12035	160.16493	-484.96954	121.37134	157.56851	-534.43732	167.74614	163.85776	-658.07697	216.27388	225.46797	-603.39673	197.33456	174.89307	-731.03394	197.49883	170.02357	-781.18628	437.10886	844.75110	-694.09277	376.78235	808.05023	-775.61139	432.07608	725.97314	-760.71143	407.25626	592.83557	-759.92542	296.87970	556.55792	-765.27167	411.20032	546.70880	-706.61304	351.07266	533.24445	-801.51807	417.57538	472.07217	-685.02209	409.57590	213.17859	-580.59619	450.95776	162.54344	-543.55829	462.18503	156.84998	-482.56537	406.26404	165.19101	-526.67981	369.26062	176.09605	-654.77307	316.99628	211.84398	-597.95496	332.21451	173.44252	-734.53870	338.54672	161.95961	-443.92584	448.35208	146.27315	-450.63898	74.82067	143.26823	-806.23199	82.15517	140.94264	-799.70752	456.41907	144.75218	
355	7.080	-65.89084	254.79276	1204.46594	-275.42340	93.04601	1061.27112	-290.13684	398.55298	1044.13379	-474.34335	235.24345	1067.57471	-720.18469	121.54053	972.22009	-693.01172	343.95728	966.69855	-871.78003	247.51070	1090.71741	-796.26318	73.66572	818.94763	-700.47833	138.85744	807.82190	-767.82904	82.65721	709.54675	-768.05780	111.32171	591.19617	-746.87463	220.63586	552.45630	-779.75281	108.68523	523.42712	-705.19543	166.44341	528.07513	-773.26630	99.76659	471.91742	-694.56122	134.42461	210.60542	-606.29852	85.79927	163.06184	-558.29053	68.14159	160.18275	-484.99210	121.35899	157.56097	-534.45935	167.71577	163.87990	-658.10895	216.29428	225.36839	-603.40698	197.34129	174.87555	-731.05908	197.50752	169.98006	-781.20935	437.07965	844.74841	-694.09888	376.86322	808.07452	-775.72632	432.01785	725.95154	-760.82709	407.34167	592.87860	-759.10223	296.50433	556.95679	-765.42450	411.10114	546.63452	-706.71460	351.14380	533.21429	-801.66394	417.51898	472.02493	-685.12012	409.62643	213.17940	-580.62854	450.99066	162.52693	-543.56525	462.19943	156.82983	-482.57874	406.26572	165.17322	-526.68860	369.29031	176.08186	-654.82648	316.98248	211.85884	-597.98669	332.21335	173.46400	-734.55963	338.55820	161.93497	-443.92249	448.35736	146.27188	-450.64276	74.80963	143.27055	-806.23676	82.16029	140.92726	-799.70276	456.37234	144.71956	
356	7.100	-67.36023	255.08356	1211.20728	-275.30151	92.92844	1066.60059	-291.22510	399.32178	1048.49707	-473.93582	235.41678	1070.34143	-719.93237	121.58974	972.66833	-692.91650	343.97067	967.21399	-872.21497	247.47556	1090.44580	-796.06482	73.77176	818.97699	-700.39630	138.93198	807.77991	-767.69305	82.67850	709.51703	-768.11249	111.25455	591.14716	-746.93213	220.54156	552.38159	-779.85858	108.61762	523.39044	-705.27960	166.39795	528.00500	-773.35120	99.76111	471.81155	-694.61548	134.43646	210.52988	-606.30994	85.75787	163.04904	-558.30658	68.15868	160.19972	-485.01126	121.33821	157.55542	-534.47650	167.68341	163.90616	-658.13208	216.29274	225.29250	-603.41101	197.33203	174.86880	-731.08136	197.51407	169.94351	-781.22229	437.01215	844.75183	-694.07343	376.94009	808.11963	-775.84210	431.91791	725.94019	-760.94421	407.36087	592.91479	-758.23755	296.13635	557.35071	-765.56140	410.99976	546.57214	-706.78638	351.19516	533.18353	-801.79639	417.43771	471.98587	-685.21423	409.67828	213.19955	-580.65686	451.02295	162.52205	-543.57196	462.20981	156.81134	-482.59714	406.27469	165.14816	-526.70337	369.32944	176.06487	-654.85065	316.91885	211.86867	-598.00714	332.21826	173.46774	-734.58472	338.56152	161.90475	-443.92017	448.35977	146.26596	-450.64868	74.80531	143.26271	-806.24213	82.16816	140.91328	-799.72046	456.32153	144.66823	
357	7.120	-68.99310	255.37630	1218.55310	-275.26236	92.77130	1072.37427	-292.39581	400.04776	1053.36707	-473.54410	235.59325	1073.23828	-719.62085	121.62045	973.21948	-692.77380	343.98737	967.84332	-872.68420	247.42538	1090.14929	-795.80078	73.83179	819.03290	-700.23328	138.96547	807.75018	-767.47839	82.65804	709.48822	-768.13074	111.14727	591.13092	-746.95294	220.44218	552.31177	-779.91522	108.53188	523.37634	-705.32983	166.32144	527.91925	-773.41370	99.74665	471.72000	-694.66083	134.44951	210.46014	-606.32013	85.71834	163.03427	-558.31909	68.17142	160.21649	-485.02670	121.30981	157.55417	-534.48743	167.65059	163.93488	-658.14728	216.27634	225.24159	-603.40857	197.31241	174.87149	-731.10089	197.52208	169.91409	-781.20776	436.90704	844.76440	-694.00085	377.00848	808.18384	-775.94043	431.78204	725.94922	-761.05841	407.30768	592.94427	-757.33118	295.77643	557.73895	-765.67358	410.90387	546.52625	-706.81897	351.22574	533.15637	-801.91180	417.34100	471.96262	-685.30029	409.72729	213.23587	-580.68158	451.05466	162.52501	-543.57849	462.21738	156.79535	-482.62094	406.29343	165.11664	-526.72437	369.37738	176.04800	-654.84943	316.81949	211.87085	-598.01611	332.23096	173.45499	-734.61298	338.55737	161.86896	-443.91888	448.36163	146.25836	-450.65280	74.80454	143.24953	-806.24725	82.17659	140.90324	-799.75531	456.27350	144.60861	
358	7.140	-70.80521	255.67926	1226.55176	-275.32666	92.59720	1078.60266	-293.65494	400.74200	1058.78284	-473.16864	235.77280	1076.26526	-719.25085	121.62709	973.86066	-692.57300	344.00607	968.58478	-873.16388	247.36148	1089.82886	-795.46228	73.84296	819.11609	-699.98108	138.95906	807.73395	-767.19312	82.60673	709.46918	-768.10559	111.01305	591.14545	-746.92511	220.34357	552.25000	-779.91370	108.43752	523.38049	-705.33679	166.21196	527.82037	-773.44415	99.72311	471.64926	-694.69550	134.46494	210.39877	-606.32959	85.68337	163.01984	-558.32764	68.18000	160.23331	-485.03928	121.27586	157.55873	-534.49237	167.61835	163.96469	-658.15564	216.25284	225.21289	-603.40009	197.28879	174.88330	-731.11908	197.53410	169.89032	-781.14893	436.76602	844.78961	-693.86975	377.06195	808.26404	-776.00385	431.61740	725.98688	-761.16333	407.18600	592.96918	-756.38293	295.42529	558.12097	-765.75720	410.81757	546.50067	-706.80731	351.23663	533.13837	-802.00928	417.23837	471.96182	-685.37476	409.76675	213.28165	-580.70386	451.08560	162.53044	-543.58514	462.22437	156.78198	-482.65012	406.32327	165.08031	-526.75110	369.43338	176.03523	-654.83191	316.70868	211.86433	-598.01556	332.25226	173.43059	-734.64349	338.54703	161.82701	-443.91907	448.36426	146.25174	-450.65274	74.80460	143.23596	-806.25116	82.18354	140.89888	-799.79791	456.23508	144.55338	
